<svg width="1400" height="1400" viewBox="0 0 1400 1400" fill="none" xmlns="http://www.w3.org/2000/svg">
<g filter="url(#filter0_i)">
<path fill-rule="evenodd" clip-rule="evenodd" d="M820.92 1178.4C802.603 1159.1 739.621 1150.1 730.904 1152.5C726.594 1149.7 720.521 1146.9 713.37 1147.6C704.359 1142.2 693.878 1142.2 686.826 1144C672.525 1132.7 644.414 1129.6 637.949 1131.3C629.721 1126.8 620.71 1124.7 610.915 1126C599.846 1124.1 588.484 1123.4 576.73 1125C545.68 1117 485.93 1106.5 426.083 1101C551.557 1121.4 781.935 1173 946.1 1205.7C885.371 1189.7 832.772 1179.6 820.92 1178.4Z" fill="url(#paint0_linear)"/>
</g>
<g filter="url(#filter1_i)">
<path fill-rule="evenodd" clip-rule="evenodd" d="M1400 307.389C1378.65 301.189 1356.9 299.989 1334.67 306.189C1323.6 299.089 1309.49 295.589 1291.08 297.589C1274.82 293.889 1258.17 292.989 1240.34 297.589C1223.79 289.689 1207.23 289.489 1190.78 293.889C1169.72 282.189 1146.9 277.089 1121.82 280.289C1093.51 275.389 1064.72 273.589 1034.74 277.789C1005.75 272.189 975.974 269.789 945.218 271.589L1225.75 317.289C1176.18 310.289 1127.8 304.889 1080.58 301.189L1399.9 365.389V307.389H1400Z" fill="url(#paint1_linear)"/>
</g>
<g filter="url(#filter2_i)">
<path fill-rule="evenodd" clip-rule="evenodd" d="M325.586 263.8C312.069 244.4 277.101 233.7 255.062 240.5C243.7 233.7 228.322 227 210.005 229.4C210.201 222.3 202.561 210.9 184.832 215.9C168.082 208.4 151.529 208.7 135.171 213.6C113.818 202.6 90.8976 198.1 65.9204 202C44.2734 198.9 22.3326 197.6 0 199.4V213.2L170.923 236.1C121.262 230.6 72.6789 226.5 25.467 224.2L417.463 290.9C390.821 274.6 356.048 266 325.586 263.8Z" fill="url(#paint2_linear)"/>
</g>
<g filter="url(#filter3_i)">
<path fill-rule="evenodd" clip-rule="evenodd" d="M944.826 507.5C936.99 495.5 915.833 488.3 902.316 492.1C895.557 487.8 886.252 483.4 875.086 484.6C875.282 480.3 870.874 473.2 860.002 476C849.913 471.2 839.824 471.1 829.735 473.7C816.904 466.6 802.995 463.5 787.715 465.4C770.475 462.5 752.844 461.3 734.626 463.9C716.897 460.5 698.776 459 680.067 460.1L851.088 488C820.92 483.8 791.339 480.4 762.639 478.2L1000.36 525.6C984.398 515.2 963.339 509.4 944.826 507.5Z" fill="url(#paint3_linear)"/>
</g>
<g filter="url(#filter4_i)">
<path fill-rule="evenodd" clip-rule="evenodd" d="M307.073 629C278.668 599 180.816 585 167.299 588.7C160.54 584.4 151.235 580 140.069 581.2C126.16 572.9 109.802 572.9 98.9295 575.6C76.7928 558.1 33.1071 553.3 23.0183 556C15.672 552 8.0319 549.2 0 548V565.4C150.059 594.8 302.47 631.9 501.406 671.6C407.276 646.4 325.586 630.8 307.073 629Z" fill="url(#paint4_linear)"/>
</g>
<g filter="url(#filter5_i)">
<path fill-rule="evenodd" clip-rule="evenodd" d="M1080.49 850.4C1062.17 831.1 999.189 822.1 990.471 824.5C986.063 821.7 980.088 818.9 972.84 819.6C963.829 814.2 953.348 814.2 946.393 816C932.093 804.7 903.981 801.6 897.516 803.3C889.289 798.7 880.277 796.7 870.482 798C859.414 796.1 848.052 795.4 836.298 797C805.247 788.9 745.498 778.4 685.65 773C811.124 793.4 1041.5 845 1205.57 877.7C1145.04 861.6 1092.44 851.6 1080.49 850.4Z" fill="url(#paint5_linear)"/>
</g>
<defs>
<filter id="filter0_i" x="426.083" y="1101" width="520.017" height="106.7" filterUnits="userSpaceOnUse" color-interpolation-filters="sRGB">
<feFlood flood-opacity="0" result="BackgroundImageFix"/>
<feBlend mode="normal" in="SourceGraphic" in2="BackgroundImageFix" result="shape"/>
<feColorMatrix in="SourceAlpha" type="matrix" values="0 0 0 0 0 0 0 0 0 0 0 0 0 0 0 0 0 0 127 0" result="hardAlpha"/>
<feOffset dy="2"/>
<feGaussianBlur stdDeviation="3"/>
<feComposite in2="hardAlpha" operator="arithmetic" k2="-1" k3="1"/>
<feColorMatrix type="matrix" values="0 0 0 0 0 0 0 0 0 0 0 0 0 0 0 0 0 0 0.5 0"/>
<feBlend mode="normal" in2="shape" result="effect1_innerShadow"/>
</filter>
<filter id="filter1_i" x="945.218" y="271" width="454.782" height="96.3888" filterUnits="userSpaceOnUse" color-interpolation-filters="sRGB">
<feFlood flood-opacity="0" result="BackgroundImageFix"/>
<feBlend mode="normal" in="SourceGraphic" in2="BackgroundImageFix" result="shape"/>
<feColorMatrix in="SourceAlpha" type="matrix" values="0 0 0 0 0 0 0 0 0 0 0 0 0 0 0 0 0 0 127 0" result="hardAlpha"/>
<feOffset dy="2"/>
<feGaussianBlur stdDeviation="3"/>
<feComposite in2="hardAlpha" operator="arithmetic" k2="-1" k3="1"/>
<feColorMatrix type="matrix" values="0 0 0 0 0 0 0 0 0 0 0 0 0 0 0 0 0 0 0.5 0"/>
<feBlend mode="normal" in2="shape" result="effect1_innerShadow"/>
</filter>
<filter id="filter2_i" x="0" y="198.581" width="417.463" height="94.319" filterUnits="userSpaceOnUse" color-interpolation-filters="sRGB">
<feFlood flood-opacity="0" result="BackgroundImageFix"/>
<feBlend mode="normal" in="SourceGraphic" in2="BackgroundImageFix" result="shape"/>
<feColorMatrix in="SourceAlpha" type="matrix" values="0 0 0 0 0 0 0 0 0 0 0 0 0 0 0 0 0 0 127 0" result="hardAlpha"/>
<feOffset dy="2"/>
<feGaussianBlur stdDeviation="3"/>
<feComposite in2="hardAlpha" operator="arithmetic" k2="-1" k3="1"/>
<feColorMatrix type="matrix" values="0 0 0 0 0 0 0 0 0 0 0 0 0 0 0 0 0 0 0.5 0"/>
<feBlend mode="normal" in2="shape" result="effect1_innerShadow"/>
</filter>
<filter id="filter3_i" x="680.067" y="459.744" width="320.297" height="67.8559" filterUnits="userSpaceOnUse" color-interpolation-filters="sRGB">
<feFlood flood-opacity="0" result="BackgroundImageFix"/>
<feBlend mode="normal" in="SourceGraphic" in2="BackgroundImageFix" result="shape"/>
<feColorMatrix in="SourceAlpha" type="matrix" values="0 0 0 0 0 0 0 0 0 0 0 0 0 0 0 0 0 0 127 0" result="hardAlpha"/>
<feOffset dy="2"/>
<feGaussianBlur stdDeviation="3"/>
<feComposite in2="hardAlpha" operator="arithmetic" k2="-1" k3="1"/>
<feColorMatrix type="matrix" values="0 0 0 0 0 0 0 0 0 0 0 0 0 0 0 0 0 0 0.5 0"/>
<feBlend mode="normal" in2="shape" result="effect1_innerShadow"/>
</filter>
<filter id="filter4_i" x="0" y="548" width="501.406" height="125.6" filterUnits="userSpaceOnUse" color-interpolation-filters="sRGB">
<feFlood flood-opacity="0" result="BackgroundImageFix"/>
<feBlend mode="normal" in="SourceGraphic" in2="BackgroundImageFix" result="shape"/>
<feColorMatrix in="SourceAlpha" type="matrix" values="0 0 0 0 0 0 0 0 0 0 0 0 0 0 0 0 0 0 127 0" result="hardAlpha"/>
<feOffset dy="2"/>
<feGaussianBlur stdDeviation="3"/>
<feComposite in2="hardAlpha" operator="arithmetic" k2="-1" k3="1"/>
<feColorMatrix type="matrix" values="0 0 0 0 0 0 0 0 0 0 0 0 0 0 0 0 0 0 0.5 0"/>
<feBlend mode="normal" in2="shape" result="effect1_innerShadow"/>
</filter>
<filter id="filter5_i" x="685.65" y="773" width="519.919" height="106.7" filterUnits="userSpaceOnUse" color-interpolation-filters="sRGB">
<feFlood flood-opacity="0" result="BackgroundImageFix"/>
<feBlend mode="normal" in="SourceGraphic" in2="BackgroundImageFix" result="shape"/>
<feColorMatrix in="SourceAlpha" type="matrix" values="0 0 0 0 0 0 0 0 0 0 0 0 0 0 0 0 0 0 127 0" result="hardAlpha"/>
<feOffset dy="2"/>
<feGaussianBlur stdDeviation="3"/>
<feComposite in2="hardAlpha" operator="arithmetic" k2="-1" k3="1"/>
<feColorMatrix type="matrix" values="0 0 0 0 0 0 0 0 0 0 0 0 0 0 0 0 0 0 0.5 0"/>
<feBlend mode="normal" in2="shape" result="effect1_innerShadow"/>
</filter>
<linearGradient id="paint0_linear" x1="686.091" y1="1101" x2="686.091" y2="1205.7" gradientUnits="userSpaceOnUse">
<stop stop-color="white"/>
<stop offset="1" stop-color="#DDDDDD"/>
</linearGradient>
<linearGradient id="paint1_linear" x1="1172.61" y1="271" x2="1172.61" y2="365.389" gradientUnits="userSpaceOnUse">
<stop stop-color="white"/>
<stop offset="1" stop-color="#DDDDDD"/>
</linearGradient>
<linearGradient id="paint2_linear" x1="208.732" y1="198.581" x2="208.732" y2="290.9" gradientUnits="userSpaceOnUse">
<stop stop-color="white"/>
<stop offset="1" stop-color="#DDDDDD"/>
</linearGradient>
<linearGradient id="paint3_linear" x1="840.216" y1="459.744" x2="840.216" y2="525.6" gradientUnits="userSpaceOnUse">
<stop stop-color="white"/>
<stop offset="1" stop-color="#DDDDDD"/>
</linearGradient>
<linearGradient id="paint4_linear" x1="250.703" y1="548" x2="250.703" y2="671.6" gradientUnits="userSpaceOnUse">
<stop stop-color="white"/>
<stop offset="1" stop-color="#DDDDDD"/>
</linearGradient>
<linearGradient id="paint5_linear" x1="945.61" y1="773" x2="945.61" y2="877.7" gradientUnits="userSpaceOnUse">
<stop stop-color="white"/>
<stop offset="1" stop-color="#DDDDDD"/>
</linearGradient>
</defs>
</svg>
