<svg width="1400" height="1400" viewBox="0 0 1400 1400" fill="none" xmlns="http://www.w3.org/2000/svg">
<path d="M1400 0H0V1400H1400V0Z" fill="url(#paint0_linear)"/>
<path fill-rule="evenodd" clip-rule="evenodd" d="M895 977.8C896.4 977.8 897.6 979 897.6 980.4C897.6 981.8 896.4 983 895 983C893.6 983 892.4 981.8 892.4 980.4C892.5 979 893.6 977.8 895 977.8Z" fill="#CCFF66"/>
<path fill-rule="evenodd" clip-rule="evenodd" d="M517.8 749.5C519.2 749.5 520.3 750.7 520.3 752.1C520.3 753.5 519.2 754.7 517.8 754.7C516.4 754.7 515.2 753.5 515.2 752.1C515.3 750.6 516.4 749.5 517.8 749.5Z" fill="#CCFF66"/>
<path fill-rule="evenodd" clip-rule="evenodd" d="M814.1 581.5C815.5 581.5 816.7 582.7 816.7 584.1C816.7 585.5 815.5 586.7 814.1 586.7C812.7 586.7 811.5 585.5 811.5 584.1C811.5 582.7 812.7 581.5 814.1 581.5Z" fill="#CCFF66"/>
<path fill-rule="evenodd" clip-rule="evenodd" d="M1215.4 545.7C1216.8 545.7 1218 546.9 1218 548.3C1218 549.7 1216.9 550.9 1215.4 550.9C1214 550.9 1212.9 549.7 1212.9 548.3C1212.9 546.9 1214 545.7 1215.4 545.7Z" fill="#CCFF66"/>
<path fill-rule="evenodd" clip-rule="evenodd" d="M207.901 439.5C209.301 439.5 210.501 440.7 210.501 442.1C210.501 443.5 209.301 444.7 207.901 444.7C206.501 444.7 205.301 443.5 205.301 442.1C205.301 440.7 206.501 439.5 207.901 439.5Z" fill="#CCFF66"/>
<path fill-rule="evenodd" clip-rule="evenodd" d="M120.2 615C120.9 615 121.5 615.6 121.5 616.3C121.5 617 120.9 617.6 120.2 617.6C119.5 617.6 118.9 617 118.9 616.3C118.9 615.6 119.5 615 120.2 615Z" fill="#CCFF66"/>
<path fill-rule="evenodd" clip-rule="evenodd" d="M173.8 268.3C174.5 268.3 175.1 268.9 175.1 269.6C175.1 270.3 174.5 270.9 173.8 270.9C173.1 270.9 172.5 270.3 172.5 269.6C172.5 268.8 173.1 268.3 173.8 268.3Z" fill="#CCFF66"/>
<path fill-rule="evenodd" clip-rule="evenodd" d="M465.2 294.2C465.9 294.2 466.5 294.8 466.5 295.5C466.5 296.2 465.9 296.8 465.2 296.8C464.5 296.8 463.9 296.2 463.9 295.5C464 294.8 464.5 294.2 465.2 294.2Z" fill="#CCFF66"/>
<path fill-rule="evenodd" clip-rule="evenodd" d="M871.401 131.2C872.101 131.2 872.701 131.8 872.701 132.5C872.701 133.2 872.101 133.8 871.401 133.8C870.701 133.8 870.101 133.2 870.101 132.5C870.201 131.8 870.701 131.2 871.401 131.2Z" fill="#CCFF66"/>
<path fill-rule="evenodd" clip-rule="evenodd" d="M818.3 293C819 293 819.6 293.6 819.6 294.3C819.6 295 819 295.6 818.3 295.6C817.6 295.6 817 295 817 294.3C817 293.6 817.6 293 818.3 293Z" fill="#CCFF66"/>
<path fill-rule="evenodd" clip-rule="evenodd" d="M870.2 318.9C870.9 318.9 871.5 319.5 871.5 320.2C871.5 320.9 870.9 321.5 870.2 321.5C869.5 321.5 868.9 320.9 868.9 320.2C868.9 319.5 869.5 318.9 870.2 318.9Z" fill="#CCFF66"/>
<path fill-rule="evenodd" clip-rule="evenodd" d="M833.101 422.6C833.801 422.6 834.401 423.2 834.401 423.9C834.401 424.6 833.801 425.2 833.101 425.2C832.401 425.2 831.801 424.6 831.801 423.9C831.801 423.2 832.401 422.6 833.101 422.6Z" fill="#CCFF66"/>
<path fill-rule="evenodd" clip-rule="evenodd" d="M1073.9 530.1C1074.6 530.1 1075.2 530.7 1075.2 531.4C1075.2 532.1 1074.6 532.7 1073.9 532.7C1073.2 532.7 1072.6 532.1 1072.6 531.4C1072.6 530.7 1073.2 530.1 1073.9 530.1Z" fill="#CCFF66"/>
<path fill-rule="evenodd" clip-rule="evenodd" d="M1196.1 226.3C1196.8 226.3 1197.4 226.9 1197.4 227.6C1197.4 228.3 1196.8 228.9 1196.1 228.9C1195.4 228.9 1194.8 228.3 1194.8 227.6C1194.8 226.9 1195.4 226.3 1196.1 226.3Z" fill="#CCFF66"/>
<path fill-rule="evenodd" clip-rule="evenodd" d="M1266.5 118.9C1267.2 118.9 1267.8 119.5 1267.8 120.2C1267.8 120.9 1267.2 121.5 1266.5 121.5C1265.8 121.5 1265.2 120.9 1265.2 120.2C1265.2 119.5 1265.8 118.9 1266.5 118.9Z" fill="#CCFF66"/>
<path fill-rule="evenodd" clip-rule="evenodd" d="M1364.1 185.6C1364.8 185.6 1365.4 186.2 1365.4 186.9C1365.4 187.6 1364.8 188.2 1364.1 188.2C1363.4 188.2 1362.8 187.6 1362.8 186.9C1362.8 186.1 1363.4 185.6 1364.1 185.6Z" fill="#CCFF66"/>
<path fill-rule="evenodd" clip-rule="evenodd" d="M1004.7 299.2C1005.4 299.2 1006 299.8 1006 300.5C1006 301.2 1005.4 301.8 1004.7 301.8C1004 301.8 1003.4 301.2 1003.4 300.5C1003.5 299.7 1004 299.2 1004.7 299.2Z" fill="#CCFF66"/>
<path fill-rule="evenodd" clip-rule="evenodd" d="M1047 733.8C1049.2 733.8 1051 735.6 1051 737.9C1051 740.1 1049.2 741.9 1047 741.9C1044.8 741.9 1043 740.1 1043 737.9C1043 735.6 1044.8 733.8 1047 733.8Z" fill="#33CC99"/>
<path fill-rule="evenodd" clip-rule="evenodd" d="M1228.3 706C1230.5 706 1232.3 707.8 1232.3 710C1232.3 712.2 1230.5 714.1 1228.3 714.1C1226.1 714.1 1224.2 712.3 1224.2 710C1224.2 707.8 1226 706 1228.3 706Z" fill="#33CC99"/>
<path fill-rule="evenodd" clip-rule="evenodd" d="M1308.5 806C1310.7 806 1312.5 807.8 1312.5 810C1312.5 812.2 1310.7 814 1308.5 814C1306.3 814 1304.4 812.2 1304.4 810C1304.4 807.8 1306.3 806 1308.5 806Z" fill="#33CC99"/>
<path fill-rule="evenodd" clip-rule="evenodd" d="M910.9 950.5C913.1 950.5 914.9 952.3 914.9 954.5C914.9 956.7 913.1 958.6 910.9 958.6C908.7 958.6 906.9 956.8 906.9 954.5C906.9 952.3 908.7 950.5 910.9 950.5Z" fill="#33CC99"/>
<path fill-rule="evenodd" clip-rule="evenodd" d="M544.201 965.3C546.401 965.3 548.201 967.1 548.201 969.4C548.201 971.6 546.401 973.4 544.201 973.4C542.001 973.4 540.101 971.6 540.101 969.4C540.201 967.1 542.001 965.3 544.201 965.3Z" fill="#33CC99"/>
<path fill-rule="evenodd" clip-rule="evenodd" d="M170.101 918.4C172.301 918.4 174.201 920.2 174.201 922.4C174.201 924.6 172.401 926.4 170.101 926.4C167.901 926.4 166.101 924.6 166.101 922.4C166.101 920.2 167.901 918.4 170.101 918.4Z" fill="#33CC99"/>
<path fill-rule="evenodd" clip-rule="evenodd" d="M82.5 955.4C84.7 955.4 86.5 957.2 86.5 959.5C86.5 961.7 84.7 963.5 82.5 963.5C80.3 963.5 78.5 961.7 78.5 959.5C78.5 957.3 80.3 955.4 82.5 955.4Z" fill="#33CC99"/>
<path fill-rule="evenodd" clip-rule="evenodd" d="M238 643C240.2 643 242 644.8 242 647C242 649.2 240.2 651 238 651C235.8 651 233.9 649.2 233.9 647C233.9 644.8 235.8 643 238 643Z" fill="#33CC99"/>
<path fill-rule="evenodd" clip-rule="evenodd" d="M191.101 181.2C193.301 181.2 195.101 183 195.101 185.2C195.101 187.4 193.301 189.2 191.101 189.2C188.901 189.2 187.101 187.4 187.101 185.2C187.001 183.1 188.801 181.2 191.101 181.2Z" fill="#33CC99"/>
<path fill-rule="evenodd" clip-rule="evenodd" d="M249.4 80.4C251.6 80.4 253.4 82.2 253.4 84.5C253.4 86.7 251.6 88.5 249.4 88.5C247.2 88.5 245.4 86.7 245.4 84.5C245.4 82.3 247.2 80.4 249.4 80.4Z" fill="#33CC99"/>
<path fill-rule="evenodd" clip-rule="evenodd" d="M1220.8 945.2C1223 945.2 1224.8 947 1224.8 949.2C1224.8 951.4 1223 953.2 1220.8 953.2C1218.6 953.2 1216.8 951.4 1216.8 949.2C1216.8 947 1218.6 945.2 1220.8 945.2Z" fill="#33CC99"/>
<path fill-rule="evenodd" clip-rule="evenodd" d="M682.5 540.2C684.7 540.2 686.5 542 686.5 544.3C686.5 546.5 684.7 548.3 682.5 548.3C680.3 548.3 678.4 546.5 678.4 544.3C678.4 542 680.3 540.2 682.5 540.2Z" fill="#33CC99"/>
<path fill-rule="evenodd" clip-rule="evenodd" d="M625.7 520.5C627.9 520.5 629.7 522.3 629.7 524.5C629.7 526.7 627.9 528.5 625.7 528.5C623.5 528.5 621.7 526.7 621.7 524.5C621.7 522.3 623.5 520.5 625.7 520.5Z" fill="#33CC99"/>
<path fill-rule="evenodd" clip-rule="evenodd" d="M692.801 364.9C693.901 364.9 694.801 365.8 694.801 366.9C694.801 368 693.901 368.9 692.801 368.9C691.701 368.9 690.801 368 690.801 366.9C690.801 365.8 691.701 364.9 692.801 364.9Z" fill="#33CC99"/>
<path fill-rule="evenodd" clip-rule="evenodd" d="M684.9 256.4C686 256.4 686.9 257.3 686.9 258.4C686.9 259.5 686 260.4 684.9 260.4C683.8 260.4 682.9 259.5 682.9 258.4C683 257.3 683.8 256.4 684.9 256.4Z" fill="#33CC99"/>
<path fill-rule="evenodd" clip-rule="evenodd" d="M501 358.9C502.1 358.9 503 359.8 503 360.9C503 362 502.1 362.9 501 362.9C499.9 362.9 499 362 499 360.9C499 359.8 499.9 358.9 501 358.9Z" fill="#33CC99"/>
<path fill-rule="evenodd" clip-rule="evenodd" d="M230.601 286.1C231.701 286.1 232.601 287 232.601 288.1C232.601 289.2 231.701 290.1 230.601 290.1C229.501 290.1 228.601 289.2 228.601 288.1C228.601 287 229.501 286.1 230.601 286.1Z" fill="#33CC99"/>
<path fill-rule="evenodd" clip-rule="evenodd" d="M61.4004 345.3C62.5004 345.3 63.4004 346.2 63.4004 347.3C63.4004 348.4 62.5004 349.3 61.4004 349.3C60.3004 349.3 59.4004 348.4 59.4004 347.3C59.4004 346.2 60.3004 345.3 61.4004 345.3Z" fill="#33CC99"/>
<path fill-rule="evenodd" clip-rule="evenodd" d="M118.2 420.6C119.3 420.6 120.2 421.5 120.2 422.6C120.2 423.7 119.3 424.6 118.2 424.6C117.1 424.6 116.2 423.7 116.2 422.6C116.2 421.5 117.1 420.6 118.2 420.6Z" fill="#33CC99"/>
<path fill-rule="evenodd" clip-rule="evenodd" d="M833.101 86C834.201 86 835.101 86.9 835.101 88C835.101 89.1 834.201 90 833.101 90C832.001 90 831.101 89.1 831.101 88C831.101 86.9 832.001 86 833.101 86Z" fill="#33CC99"/>
<path fill-rule="evenodd" clip-rule="evenodd" d="M1290 408.3C1291.1 408.3 1292 409.2 1292 410.3C1292 411.4 1291.1 412.3 1290 412.3C1288.9 412.3 1288 411.4 1288 410.3C1288 409.2 1288.9 408.3 1290 408.3Z" fill="#33CC99"/>
<path fill-rule="evenodd" clip-rule="evenodd" d="M935.601 698.5C936.701 698.5 937.601 699.4 937.601 700.5C937.601 701.6 936.701 702.5 935.601 702.5C934.501 702.5 933.601 701.6 933.601 700.5C933.601 699.3 934.501 698.5 935.601 698.5Z" fill="#33CC99"/>
<path fill-rule="evenodd" clip-rule="evenodd" d="M485.6 88.5C488.5 88.5 490.8 90.8 490.8 93.7C490.8 96.6 488.5 98.9 485.6 98.9C482.7 98.9 480.4 96.6 480.4 93.7C480.4 90.8 482.8 88.5 485.6 88.5Z" fill="#FF9999"/>
<path fill-rule="evenodd" clip-rule="evenodd" d="M290.801 485.2C293.701 485.2 296.001 487.5 296.001 490.4C296.001 493.3 293.701 495.6 290.801 495.6C287.901 495.6 285.601 493.3 285.601 490.4C285.601 487.6 287.901 485.2 290.801 485.2Z" fill="#FF9999"/>
<path fill-rule="evenodd" clip-rule="evenodd" d="M1134.1 396.6C1136.9 396.6 1139.2 398.9 1139.2 401.8C1139.2 404.7 1136.9 407 1134.1 407C1131.2 407 1128.9 404.7 1128.9 401.8C1128.9 398.9 1131.2 396.6 1134.1 396.6Z" fill="#FF9999"/>
<path fill-rule="evenodd" clip-rule="evenodd" d="M813 681.8C815.9 681.8 818.2 684.1 818.2 687C818.2 689.9 815.9 692.2 813 692.2C810.2 692.2 807.9 689.9 807.9 687C807.9 684.1 810.2 681.8 813 681.8Z" fill="#FF9999"/>
<path fill-rule="evenodd" clip-rule="evenodd" d="M1103.2 1052C1106 1052 1108.4 1054.3 1108.4 1057.2C1108.4 1060 1106.1 1062.4 1103.2 1062.4C1100.3 1062.4 1098 1060.1 1098 1057.2C1098.1 1054.3 1100.4 1052 1103.2 1052Z" fill="#FF9999"/>
<path fill-rule="evenodd" clip-rule="evenodd" d="M1279.8 579C1282.7 579 1285 581.3 1285 584.2C1285 587.1 1282.7 589.4 1279.8 589.4C1277 589.4 1274.7 587.1 1274.7 584.2C1274.6 581.4 1276.9 579 1279.8 579Z" fill="#FF9999"/>
<path fill-rule="evenodd" clip-rule="evenodd" d="M443.4 766.4C445.4 766.4 446.9 768 446.9 769.9C446.9 771.9 445.4 773.4 443.4 773.4C441.5 773.4 439.9 771.8 439.9 769.9C439.9 767.9 441.5 766.4 443.4 766.4Z" fill="#FF9999"/>
<path fill-rule="evenodd" clip-rule="evenodd" d="M226.7 550.2C228.6 550.2 230.2 551.8 230.2 553.7C230.2 555.7 228.6 557.2 226.7 557.2C224.7 557.2 223.2 555.6 223.2 553.7C223.2 551.8 224.8 550.2 226.7 550.2Z" fill="#FF9999"/>
<path fill-rule="evenodd" clip-rule="evenodd" d="M89.7002 658.8C91.6002 658.8 93.2002 660.4 93.2002 662.3C93.2002 664.2 91.6002 665.8 89.7002 665.8C87.8002 665.8 86.2002 664.2 86.2002 662.3C86.2002 660.4 87.7002 658.8 89.7002 658.8Z" fill="#FF9999"/>
<path fill-rule="evenodd" clip-rule="evenodd" d="M182.3 783.5C184.2 783.5 185.8 785.1 185.8 787C185.8 788.9 184.2 790.5 182.3 790.5C180.3 790.5 178.8 788.9 178.8 787C178.7 785.1 180.3 783.5 182.3 783.5Z" fill="#FF9999"/>
<path fill-rule="evenodd" clip-rule="evenodd" d="M202 845.3C204 845.3 205.5 846.9 205.5 848.8C205.5 850.7 203.9 852.3 202 852.3C200.1 852.3 198.5 850.7 198.5 848.8C198.5 846.9 200.1 845.3 202 845.3Z" fill="#FF9999"/>
<path fill-rule="evenodd" clip-rule="evenodd" d="M166.2 883.6C168.2 883.6 169.7 885.2 169.7 887.1C169.7 889.1 168.1 890.6 166.2 890.6C164.3 890.6 162.7 889 162.7 887.1C162.7 885.1 164.3 883.6 166.2 883.6Z" fill="#FF9999"/>
<path fill-rule="evenodd" clip-rule="evenodd" d="M1176.2 239.1C1178.2 239.1 1179.7 240.7 1179.7 242.6C1179.7 244.6 1178.1 246.1 1176.2 246.1C1174.3 246.1 1172.7 244.5 1172.7 242.6C1172.7 240.6 1174.3 239.1 1176.2 239.1Z" fill="#FF9999"/>
<path fill-rule="evenodd" clip-rule="evenodd" d="M1154 34.1C1156 34.1 1157.5 35.7 1157.5 37.6C1157.5 39.6 1155.9 41.1 1154 41.1C1152.1 41.1 1150.5 39.5 1150.5 37.6C1150.5 35.7 1152.1 34.1 1154 34.1Z" fill="#FF9999"/>
<path fill-rule="evenodd" clip-rule="evenodd" d="M1304.6 152.6C1306.6 152.6 1308.1 154.2 1308.1 156.1C1308.1 158 1306.5 159.6 1304.6 159.6C1302.7 159.6 1301.1 158 1301.1 156.1C1301.1 154.2 1302.7 152.6 1304.6 152.6Z" fill="#FF9999"/>
<path fill-rule="evenodd" clip-rule="evenodd" d="M1134.9 208.8C1136.8 208.8 1138.4 210.3 1138.4 212.3C1138.4 214.2 1136.8 215.8 1134.9 215.8C1132.9 215.8 1131.4 214.2 1131.4 212.3C1131.3 210.4 1132.9 208.8 1134.9 208.8Z" fill="#CC66FF"/>
<path fill-rule="evenodd" clip-rule="evenodd" d="M332.3 510.4C335.6 510.4 338.3 513.1 338.3 516.4C338.3 519.7 335.6 522.4 332.3 522.4C329 522.4 326.3 519.7 326.3 516.4C326.3 513.1 329 510.4 332.3 510.4Z" fill="#CC66FF"/>
<path fill-rule="evenodd" clip-rule="evenodd" d="M251.6 140.2C254.9 140.2 257.6 142.9 257.6 146.2C257.6 149.5 254.9 152.2 251.6 152.2C248.3 152.2 245.6 149.5 245.6 146.2C245.6 142.9 248.3 140.2 251.6 140.2Z" fill="#CC66FF"/>
<path fill-rule="evenodd" clip-rule="evenodd" d="M466.399 58.7C469.699 58.7 472.399 61.4 472.399 64.7C472.399 68 469.699 70.7 466.399 70.7C463.099 70.7 460.399 68 460.399 64.7C460.399 61.4 463.099 58.7 466.399 58.7Z" fill="#CC66FF"/>
<path fill-rule="evenodd" clip-rule="evenodd" d="M982.5 999.6C985.8 999.6 988.5 1002.3 988.5 1005.6C988.5 1008.9 985.8 1011.6 982.5 1011.6C979.2 1011.6 976.5 1008.9 976.5 1005.6C976.5 1002.3 979.2 999.6 982.5 999.6Z" fill="#CC66FF"/>
<path fill-rule="evenodd" clip-rule="evenodd" d="M1360.3 1090.9C1363.6 1090.9 1366.3 1093.6 1366.3 1096.9C1366.3 1100.2 1363.6 1102.9 1360.3 1102.9C1357 1102.9 1354.3 1100.2 1354.3 1096.9C1354.3 1093.6 1357 1090.9 1360.3 1090.9Z" fill="#CC66FF"/>
<path fill-rule="evenodd" clip-rule="evenodd" d="M115.7 1007C119 1007 121.7 1009.7 121.7 1013C121.7 1016.3 119 1019 115.7 1019C112.4 1019 109.7 1016.3 109.7 1013C109.7 1009.7 112.4 1007 115.7 1007Z" fill="#CC66FF"/>
<path fill-rule="evenodd" clip-rule="evenodd" d="M26.7998 646.4C30.0998 646.4 32.7998 649.1 32.7998 652.4C32.7998 655.7 30.0998 658.4 26.7998 658.4C23.4998 658.4 20.7998 655.7 20.7998 652.4C20.7998 649.1 23.4998 646.4 26.7998 646.4Z" fill="#CC66FF"/>
<path fill-rule="evenodd" clip-rule="evenodd" d="M194.3 363.5C195.9 363.5 197.3 364.9 197.3 366.5C197.3 368.2 195.9 369.5 194.3 369.5C192.6 369.5 191.3 368.2 191.3 366.5C191.2 364.9 192.6 363.5 194.3 363.5Z" fill="#CC66FF"/>
<path fill-rule="evenodd" clip-rule="evenodd" d="M75.5002 80.4C77.1002 80.4 78.5002 81.8 78.5002 83.4C78.5002 85.1 77.1002 86.4 75.5002 86.4C73.8002 86.4 72.5002 85.1 72.5002 83.4C72.4002 81.8 73.8002 80.4 75.5002 80.4Z" fill="#CC66FF"/>
<path fill-rule="evenodd" clip-rule="evenodd" d="M1043.1 391.7C1044.8 391.7 1046.1 393.1 1046.1 394.7C1046.1 396.4 1044.8 397.7 1043.1 397.7C1041.5 397.7 1040.1 396.4 1040.1 394.7C1040.1 393.1 1041.5 391.7 1043.1 391.7Z" fill="#CC66FF"/>
<path fill-rule="evenodd" clip-rule="evenodd" d="M775.5 780.4C777.1 780.4 778.5 781.8 778.5 783.4C778.5 785.1 777.1 786.4 775.5 786.4C773.8 786.4 772.5 785.1 772.5 783.4C772.5 781.8 773.8 780.4 775.5 780.4Z" fill="#CC66FF"/>
<path fill-rule="evenodd" clip-rule="evenodd" d="M618.3 1011.5C620 1011.5 621.3 1012.8 621.3 1014.5C621.3 1016.1 620 1017.5 618.3 1017.5C616.7 1017.5 615.3 1016.1 615.3 1014.5C615.3 1012.9 616.7 1011.5 618.3 1011.5Z" fill="#CC66FF"/>
<path fill-rule="evenodd" clip-rule="evenodd" d="M346.7 779.4C348.4 779.4 349.7 780.8 349.7 782.4C349.7 784.1 348.4 785.4 346.7 785.4C345.1 785.4 343.7 784.1 343.7 782.4C343.7 780.7 345.1 779.4 346.7 779.4Z" fill="#CC66FF"/>
<path fill-rule="evenodd" clip-rule="evenodd" d="M751.7 107.7C753.4 107.7 754.7 109.1 754.7 110.7C754.7 112.4 753.4 113.7 751.7 113.7C750.1 113.7 748.7 112.4 748.7 110.7C748.7 109.1 750 107.7 751.7 107.7Z" fill="#CC66FF"/>
<path fill-rule="evenodd" clip-rule="evenodd" d="M1131.5 774.4C1133.1 774.4 1134.5 775.8 1134.5 777.4C1134.5 779.1 1133.1 780.4 1131.5 780.4C1129.8 780.4 1128.5 779.1 1128.5 777.4C1128.5 775.8 1129.8 774.4 1131.5 774.4Z" fill="#CC66FF"/>
<defs>
<linearGradient id="paint0_linear" x1="700" y1="10" x2="700" y2="1442" gradientUnits="userSpaceOnUse">
<stop stop-color="#157D71"/>
<stop offset="1" stop-color="#031430"/>
</linearGradient>
</defs>
</svg>
