<svg width="1400" height="1400" viewBox="0 0 1400 1400" fill="none" xmlns="http://www.w3.org/2000/svg">
<g clip-path="url(#clip0)">
<path d="M1400 0H0V1400H1400V0Z" fill="url(#paint0_linear)"/>
<path fill-rule="evenodd" clip-rule="evenodd" d="M995.4 1114C976.7 1094.7 912.4 1085.7 903.5 1088.1C899.1 1085.3 892.9 1082.5 885.6 1083.2C876.4 1077.8 865.7 1077.8 858.5 1079.6C843.9 1068.3 815.2 1065.2 808.6 1066.9C800.2 1062.4 791 1060.3 781 1061.6C769.7 1059.7 758.1 1059 746.1 1060.6C714.4 1052.6 653.4 1042.1 592.3 1036.6C720.4 1057 955.6 1108.6 1123.2 1141.3C1061.2 1125.3 1007.5 1115.2 995.4 1114Z" fill="#1B7D78"/>
<path fill-rule="evenodd" clip-rule="evenodd" d="M1400 491.5C1378.2 485.3 1356 484.1 1333.3 490.3C1322 483.2 1307.6 479.7 1288.8 481.7C1272.2 478 1255.2 477.1 1237 481.7C1220.1 473.8 1203.2 473.6 1186.4 478C1164.9 466.3 1141.6 461.2 1116 464.4C1087.1 459.5 1057.7 457.7 1027.1 461.9C997.5 456.3 967.1 453.9 935.7 455.7L1222.1 501.4C1171.5 494.4 1122.1 489 1073.9 485.3L1399.9 549.5V491.5H1400Z" fill="#1B7D78"/>
<path fill-rule="evenodd" clip-rule="evenodd" d="M332.4 263.8C318.6 244.4 282.9 233.7 260.4 240.5C248.8 233.7 233.1 227 214.4 229.4C214.6 222.3 206.8 210.9 188.7 215.9C171.6 208.4 154.7 208.7 138 213.6C116.2 202.6 92.8 198.1 67.3 202C45.2 198.9 22.8 197.6 0 199.4V213.2L174.5 236.1C123.8 230.6 74.2 226.5 26 224.2L426.2 290.9C399 274.6 363.5 266 332.4 263.8Z" fill="#1B7D78"/>
<path fill-rule="evenodd" clip-rule="evenodd" d="M964.6 507.5C956.6 495.5 935 488.3 921.2 492.1C914.3 487.8 904.8 483.4 893.4 484.6C893.6 480.3 889.1 473.2 878 476C867.7 471.2 857.4 471.1 847.1 473.7C834 466.6 819.8 463.5 804.2 465.4C786.6 462.5 768.6 461.3 750 463.9C731.9 460.5 713.4 459 694.3 460.1L868.9 488C838.1 483.8 807.9 480.4 778.6 478.2L1021.3 525.6C1005 515.2 983.5 509.4 964.6 507.5Z" fill="#1B7D78"/>
<path fill-rule="evenodd" clip-rule="evenodd" d="M313.5 629C284.5 599 184.6 585 170.8 588.7C163.9 584.4 154.4 580 143 581.2C128.8 572.9 112.1 572.9 101 575.6C78.4 558.1 33.8 553.3 23.5 556C16 552 8.2 549.2 0 548V565.4C153.2 594.8 308.8 631.9 511.9 671.6C415.8 646.4 332.4 630.8 313.5 629Z" fill="#1B7D78"/>
<path fill-rule="evenodd" clip-rule="evenodd" d="M670.1 729.6C651.4 710.3 587.1 701.3 578.2 703.7C573.7 700.9 567.6 698.1 560.2 698.8C551 693.4 540.3 693.4 533.2 695.2C518.6 683.9 489.9 680.8 483.3 682.5C474.9 677.9 465.7 675.9 455.7 677.2C444.4 675.3 432.8 674.6 420.8 676.2C389.1 668.1 328.1 657.6 267 652.2C395.1 672.6 630.3 724.2 797.8 756.9C736 740.8 682.3 730.8 670.1 729.6Z" fill="#1B7D78"/>
<path fill-rule="evenodd" clip-rule="evenodd" d="M1400 1148.9V1400H0V1109.7C179.6 1088.4 371 1076.8 569.8 1076.8C868.3 1076.9 1150.2 1102.8 1400 1148.9Z" fill="#1B7D78"/>
<path fill-rule="evenodd" clip-rule="evenodd" d="M1400 1192.2V1400H0V1330.3C79.9 1316.1 160.2 1303.8 240.6 1292.9C162.8 1287.9 82.8 1293.1 0 1311.5V1151.4C170.3 1136.1 348.3 1128.1 531.4 1128.1C415.7 1139.2 152.9 1169.8 52.7 1198.6C681.8 1109.7 1136.4 1151.8 1400 1192.2ZM347.7 1224.1C539.5 1203.5 731.3 1198.2 923.1 1200.6C809.7 1176.2 688.3 1173.5 555.1 1201.8C480.7 1198.5 410.7 1204.3 347.7 1224.1Z" fill="url(#paint1_linear)"/>
<path fill-rule="evenodd" clip-rule="evenodd" d="M1400 1274.5V1400H61.7998C188.5 1350.8 374.6 1307.8 585.9 1295.4C797.1 1283.1 912.9 1205.7 1400 1274.5Z" fill="#072E40"/>
<path fill-rule="evenodd" clip-rule="evenodd" d="M1400 1153.2V1226.2C1372.2 1233.1 1346.6 1243.8 1322.7 1257.7C1266.1 1245.4 1187.9 1233.8 1079.5 1223.2C1095.5 1222.4 1111.6 1221.5 1127.7 1220.7C1063.8 1207.4 1007.2 1199.4 957.3 1196C1005.5 1191.4 1054 1189.9 1103 1193.6C1125.4 1176.6 1151.3 1167 1183.3 1170.2C1173.6 1167.2 1162.6 1166.2 1148.7 1170.2C1127.7 1163.4 1103.9 1157.6 1070.9 1155.4C1119.9 1141.3 1171.7 1137.5 1226.5 1145.5C1281.2 1135.5 1338.8 1136.9 1400 1153.2ZM1400 1230.1V1400H632.9C702 1379.6 774.8 1364 857.2 1361.4C870.4 1343.4 890 1332.9 916.5 1330.5C932.4 1314.3 952.1 1309.6 977 1320.6C1041.5 1306.2 1093.6 1319.4 1140 1345.3C1177.1 1312.2 1224.4 1303.5 1279.5 1313.2C1308.1 1271.1 1348.9 1244.2 1400 1230.1ZM315.2 1400H0V1351.1C27.8 1358.3 55.5 1368.6 83.1 1382.4C161.2 1381.8 238.6 1388 315.2 1400ZM0 1289.2V1178.5C34.6 1180.7 75.2 1191 109 1221.9C156.2 1215.3 186.1 1221.9 205.3 1236.7C222.7 1232.4 242.6 1232.7 263.3 1234.2C164.5 1246.7 77.3 1265.3 0 1289.2ZM0 1175.6V1130.6C70.5 1115 134 1120.2 190.5 1146.5C242.5 1131.3 281.7 1141.9 318.9 1156.4C371.9 1151.1 417 1150.6 453.5 1155.1C313.5 1163 208.5 1170 66.9 1187.8C45.7 1179.3 22.2 1175.9 0 1175.6Z" fill="#07283D"/>
<path fill-rule="evenodd" clip-rule="evenodd" d="M624.4 234.4C647.6 234.4 666.4 253.2 666.4 276.4C666.4 299.6 647.6 318.4 624.4 318.4C601.2 318.4 582.4 299.6 582.4 276.4C582.5 253.2 601.3 234.4 624.4 234.4Z" fill="#153347"/>
<path fill-rule="evenodd" clip-rule="evenodd" d="M624.401 249.8C639.101 249.8 651.001 261.7 651.001 276.4C651.001 291.1 639.101 303 624.401 303C609.701 303 597.801 291.1 597.801 276.4C597.901 261.7 609.801 249.8 624.401 249.8Z" fill="#244153"/>
<path fill-rule="evenodd" clip-rule="evenodd" d="M624.401 259.6C633.701 259.6 641.201 267.2 641.201 276.5C641.201 285.8 633.701 293.3 624.401 293.3C615.101 293.3 607.601 285.7 607.601 276.5C607.601 267.1 615.101 259.6 624.401 259.6Z" fill="#355061"/>
<path fill-rule="evenodd" clip-rule="evenodd" d="M624.4 265.8C630.3 265.8 635.1 270.6 635.1 276.5C635.1 282.4 630.3 287.1 624.4 287.1C618.5 287.1 613.7 282.3 613.7 276.5C613.8 270.5 618.6 265.8 624.4 265.8Z" fill="white"/>
<path fill-rule="evenodd" clip-rule="evenodd" d="M1086.5 544.4C1097.1 544.4 1105.6 552.9 1105.6 563.5C1105.6 574.1 1097.1 582.6 1086.5 582.6C1075.9 582.6 1067.4 574 1067.4 563.5C1067.4 552.9 1075.9 544.4 1086.5 544.4Z" fill="#184753"/>
<path fill-rule="evenodd" clip-rule="evenodd" d="M1086.5 551.4C1093.2 551.4 1098.6 556.8 1098.6 563.5C1098.6 570.2 1093.2 575.6 1086.5 575.6C1079.8 575.6 1074.4 570.2 1074.4 563.5C1074.4 556.8 1079.8 551.4 1086.5 551.4Z" fill="#27545E"/>
<path fill-rule="evenodd" clip-rule="evenodd" d="M1086.5 555.8C1090.7 555.8 1094.2 559.2 1094.2 563.5C1094.2 567.7 1090.8 571.2 1086.5 571.2C1082.2 571.2 1078.8 567.8 1078.8 563.5C1078.8 559.2 1082.3 555.8 1086.5 555.8Z" fill="#38616C"/>
<path fill-rule="evenodd" clip-rule="evenodd" d="M1086.5 558.6C1089.2 558.6 1091.4 560.8 1091.4 563.5C1091.4 566.2 1089.2 568.4 1086.5 568.4C1083.8 568.4 1081.6 566.2 1081.6 563.5C1081.6 560.8 1083.8 558.6 1086.5 558.6Z" fill="white"/>
<path fill-rule="evenodd" clip-rule="evenodd" d="M220.1 822.5C222.8 822.5 225 824.7 225 827.4C225 830.1 222.8 832.3 220.1 832.3C217.4 832.3 215.3 830.1 215.3 827.4C215.3 824.6 217.5 822.5 220.1 822.5Z" fill="white"/>
<path fill-rule="evenodd" clip-rule="evenodd" d="M258.3 430.4C261 430.4 263.2 432.6 263.2 435.3C263.2 438 261 440.2 258.3 440.2C255.6 440.2 253.4 438 253.4 435.3C253.5 432.6 255.6 430.4 258.3 430.4Z" fill="white"/>
<path fill-rule="evenodd" clip-rule="evenodd" d="M860.6 916.7C863.3 916.7 865.5 918.9 865.5 921.6C865.5 924.3 863.3 926.5 860.6 926.5C857.9 926.5 855.7 924.3 855.7 921.6C855.7 918.9 857.9 916.7 860.6 916.7Z" fill="white"/>
<path fill-rule="evenodd" clip-rule="evenodd" d="M1110 173.4C1112.7 173.4 1114.9 175.6 1114.9 178.3C1114.9 181 1112.7 183.2 1110 183.2C1107.3 183.2 1105.1 181 1105.1 178.3C1105.2 175.6 1107.3 173.4 1110 173.4Z" fill="white"/>
<path fill-rule="evenodd" clip-rule="evenodd" d="M107.4 54.8C110.1 54.8 112.3 57.0001 112.3 59.7001C112.3 62.4001 110.1 64.6 107.4 64.6C104.7 64.6 102.5 62.4001 102.5 59.7001C102.6 57.0001 104.7 54.8 107.4 54.8Z" fill="white"/>
<path fill-rule="evenodd" clip-rule="evenodd" d="M1228.5 736.4C1231.2 736.4 1233.4 738.6 1233.4 741.3C1233.4 744 1231.2 746.2 1228.5 746.2C1225.8 746.2 1223.6 744 1223.6 741.3C1223.7 738.6 1225.9 736.4 1228.5 736.4Z" fill="white"/>
<path fill-rule="evenodd" clip-rule="evenodd" d="M779.1 304.3C781.8 304.3 784 306.5 784 309.2C784 311.9 781.8 314.1 779.1 314.1C776.4 314.1 774.2 311.9 774.2 309.2C774.2 306.4 776.4 304.3 779.1 304.3Z" fill="white"/>
<path fill-rule="evenodd" clip-rule="evenodd" d="M790.8 253.9C792.3 253.9 793.6 255.2 793.6 256.7C793.6 258.2 792.3 259.5 790.8 259.5C789.3 259.5 788 258.3 788 256.7C788 255.1 789.3 253.9 790.8 253.9Z" fill="#FFFF99"/>
<path fill-rule="evenodd" clip-rule="evenodd" d="M716 295.3C717.5 295.3 718.8 296.6 718.8 298.1C718.8 299.6 717.6 300.9 716 300.9C714.5 300.9 713.2 299.7 713.2 298.1C713.2 296.5 714.5 295.3 716 295.3Z" fill="#FFFF99"/>
<path fill-rule="evenodd" clip-rule="evenodd" d="M822.201 341C825.401 341 828.001 343.6 828.001 346.8C828.001 350.1 825.401 352.7 822.201 352.7C818.901 352.7 816.301 350.1 816.301 346.8C816.301 343.6 818.901 341 822.201 341Z" fill="#FFFF99"/>
<path fill-rule="evenodd" clip-rule="evenodd" d="M1058.9 94.4C1062.2 94.4 1064.8 97 1064.8 100.2C1064.8 103.5 1062.2 106.1 1058.9 106.1C1055.6 106.1 1053 103.5 1053 100.2C1053 97 1055.7 94.4 1058.9 94.4Z" fill="#FFFF99"/>
<path fill-rule="evenodd" clip-rule="evenodd" d="M1194.8 151.2C1198 151.2 1200.6 153.8 1200.6 157C1200.6 160.3 1198 162.9 1194.8 162.9C1191.5 162.9 1188.9 160.3 1188.9 157C1188.9 153.8 1191.5 151.2 1194.8 151.2Z" fill="#FFFF99"/>
<path fill-rule="evenodd" clip-rule="evenodd" d="M609.3 430.4C612.5 430.4 615.1 433 615.1 436.3C615.1 439.5 612.5 442.2 609.3 442.2C606 442.2 603.4 439.5 603.4 436.3C603.5 433.1 606.1 430.4 609.3 430.4Z" fill="#FFFF99"/>
<path fill-rule="evenodd" clip-rule="evenodd" d="M294.3 599.1C297.6 599.1 300.2 601.7 300.2 604.9C300.2 608.2 297.6 610.8 294.3 610.8C291.1 610.8 288.5 608.2 288.5 604.9C288.5 601.7 291.1 599.1 294.3 599.1Z" fill="#FFFF99"/>
<path fill-rule="evenodd" clip-rule="evenodd" d="M427.7 739.8C431 739.8 433.6 742.4 433.6 745.7C433.6 749 431 751.6 427.7 751.6C424.5 751.6 421.9 749 421.9 745.7C421.9 742.4 424.4 739.8 427.7 739.8Z" fill="#FFFF99"/>
<path fill-rule="evenodd" clip-rule="evenodd" d="M324.001 883C327.201 883 329.901 885.6 329.901 888.8C329.901 892.1 327.201 894.7 324.001 894.7C320.701 894.7 318.101 892.1 318.101 888.8C318.101 885.7 320.701 883 324.001 883Z" fill="#FFFF99"/>
<path fill-rule="evenodd" clip-rule="evenodd" d="M84.3004 768.7C87.5004 768.7 90.1004 771.3 90.1004 774.6C90.1004 777.8 87.5004 780.4 84.3004 780.4C81.0004 780.4 78.4004 777.8 78.4004 774.6C78.5004 771.3 81.1004 768.7 84.3004 768.7Z" fill="#FFFF99"/>
<path fill-rule="evenodd" clip-rule="evenodd" d="M303.3 166.1C304.7 166.1 305.9 167.3 305.9 168.7C305.9 170.1 304.7 171.3 303.3 171.3C301.9 171.3 300.7 170.1 300.7 168.7C300.7 167.3 301.9 166.1 303.3 166.1Z" fill="#FFFF99"/>
<path fill-rule="evenodd" clip-rule="evenodd" d="M122.1 104.9C123.5 104.9 124.7 106.1 124.7 107.5C124.7 108.9 123.5 110.1 122.1 110.1C120.7 110.1 119.5 108.9 119.5 107.5C119.5 106.1 120.7 104.9 122.1 104.9Z" fill="#FFFF99"/>
<path fill-rule="evenodd" clip-rule="evenodd" d="M104.8 376.6C106.2 376.6 107.4 377.8 107.4 379.2C107.4 380.6 106.2 381.8 104.8 381.8C103.4 381.8 102.2 380.6 102.2 379.2C102.2 377.8 103.4 376.6 104.8 376.6Z" fill="#FFFF99"/>
<path fill-rule="evenodd" clip-rule="evenodd" d="M474 558.1C475.4 558.1 476.6 559.2 476.6 560.7C476.6 562.1 475.4 563.2 474 563.2C472.6 563.2 471.4 562.1 471.4 560.7C471.4 559.2 472.6 558.1 474 558.1Z" fill="#FFFF99"/>
<path fill-rule="evenodd" clip-rule="evenodd" d="M574 175.3C575.4 175.3 576.5 176.4 576.5 177.9C576.5 179.3 575.4 180.4 574 180.4C572.6 180.4 571.4 179.3 571.4 177.9C571.4 176.4 572.6 175.3 574 175.3Z" fill="#FFFF99"/>
<path fill-rule="evenodd" clip-rule="evenodd" d="M1146.9 723.5C1148.3 723.5 1149.4 724.7 1149.4 726.1C1149.4 727.5 1148.3 728.7 1146.9 728.7C1145.5 728.7 1144.3 727.5 1144.3 726.1C1144.4 724.7 1145.5 723.5 1146.9 723.5Z" fill="#FFFF99"/>
<path fill-rule="evenodd" clip-rule="evenodd" d="M1267.9 977.9C1269.3 977.9 1270.5 979.1 1270.5 980.5C1270.5 981.9 1269.3 983.1 1267.9 983.1C1266.5 983.1 1265.3 981.9 1265.3 980.5C1265.4 979 1266.5 977.9 1267.9 977.9Z" fill="#FFFF99"/>
<path fill-rule="evenodd" clip-rule="evenodd" d="M895 977.8C896.4 977.8 897.6 979 897.6 980.4C897.6 981.8 896.4 983 895 983C893.6 983 892.4 981.8 892.4 980.4C892.5 979 893.6 977.8 895 977.8Z" fill="#CCFF66"/>
<path fill-rule="evenodd" clip-rule="evenodd" d="M517.8 749.5C519.2 749.5 520.3 750.7 520.3 752.1C520.3 753.5 519.2 754.7 517.8 754.7C516.4 754.7 515.2 753.5 515.2 752.1C515.3 750.6 516.4 749.5 517.8 749.5Z" fill="#CCFF66"/>
<path fill-rule="evenodd" clip-rule="evenodd" d="M814.1 581.5C815.5 581.5 816.7 582.7 816.7 584.1C816.7 585.5 815.5 586.7 814.1 586.7C812.7 586.7 811.5 585.5 811.5 584.1C811.5 582.7 812.7 581.5 814.1 581.5Z" fill="#CCFF66"/>
<path fill-rule="evenodd" clip-rule="evenodd" d="M1215.4 545.7C1216.8 545.7 1218 546.9 1218 548.3C1218 549.7 1216.9 550.9 1215.4 550.9C1214 550.9 1212.9 549.7 1212.9 548.3C1212.9 546.9 1214 545.7 1215.4 545.7Z" fill="#CCFF66"/>
<path fill-rule="evenodd" clip-rule="evenodd" d="M207.901 439.5C209.301 439.5 210.501 440.7 210.501 442.1C210.501 443.5 209.301 444.7 207.901 444.7C206.501 444.7 205.301 443.5 205.301 442.1C205.301 440.7 206.501 439.5 207.901 439.5Z" fill="#CCFF66"/>
<path fill-rule="evenodd" clip-rule="evenodd" d="M120.2 615C120.9 615 121.5 615.6 121.5 616.3C121.5 617 120.9 617.6 120.2 617.6C119.5 617.6 118.9 617 118.9 616.3C118.9 615.6 119.5 615 120.2 615Z" fill="#CCFF66"/>
<path fill-rule="evenodd" clip-rule="evenodd" d="M173.8 268.3C174.5 268.3 175.1 268.9 175.1 269.6C175.1 270.3 174.5 270.9 173.8 270.9C173.1 270.9 172.5 270.3 172.5 269.6C172.5 268.8 173.1 268.3 173.8 268.3Z" fill="#CCFF66"/>
<path fill-rule="evenodd" clip-rule="evenodd" d="M465.2 294.2C465.9 294.2 466.5 294.8 466.5 295.5C466.5 296.2 465.9 296.8 465.2 296.8C464.5 296.8 463.9 296.2 463.9 295.5C464 294.8 464.5 294.2 465.2 294.2Z" fill="#CCFF66"/>
<path fill-rule="evenodd" clip-rule="evenodd" d="M871.401 131.2C872.101 131.2 872.701 131.8 872.701 132.5C872.701 133.2 872.101 133.8 871.401 133.8C870.701 133.8 870.101 133.2 870.101 132.5C870.201 131.8 870.701 131.2 871.401 131.2Z" fill="#CCFF66"/>
<path fill-rule="evenodd" clip-rule="evenodd" d="M818.3 293C819 293 819.6 293.6 819.6 294.3C819.6 295 819 295.6 818.3 295.6C817.6 295.6 817 295 817 294.3C817 293.6 817.6 293 818.3 293Z" fill="#CCFF66"/>
<path fill-rule="evenodd" clip-rule="evenodd" d="M870.2 318.9C870.9 318.9 871.5 319.5 871.5 320.2C871.5 320.9 870.9 321.5 870.2 321.5C869.5 321.5 868.9 320.9 868.9 320.2C868.9 319.5 869.5 318.9 870.2 318.9Z" fill="#CCFF66"/>
<path fill-rule="evenodd" clip-rule="evenodd" d="M833.101 422.6C833.801 422.6 834.401 423.2 834.401 423.9C834.401 424.6 833.801 425.2 833.101 425.2C832.401 425.2 831.801 424.6 831.801 423.9C831.801 423.2 832.401 422.6 833.101 422.6Z" fill="#CCFF66"/>
<path fill-rule="evenodd" clip-rule="evenodd" d="M1073.9 530.1C1074.6 530.1 1075.2 530.7 1075.2 531.4C1075.2 532.1 1074.6 532.7 1073.9 532.7C1073.2 532.7 1072.6 532.1 1072.6 531.4C1072.6 530.7 1073.2 530.1 1073.9 530.1Z" fill="#CCFF66"/>
<path fill-rule="evenodd" clip-rule="evenodd" d="M1196.1 226.3C1196.8 226.3 1197.4 226.9 1197.4 227.6C1197.4 228.3 1196.8 228.9 1196.1 228.9C1195.4 228.9 1194.8 228.3 1194.8 227.6C1194.8 226.9 1195.4 226.3 1196.1 226.3Z" fill="#CCFF66"/>
<path fill-rule="evenodd" clip-rule="evenodd" d="M1266.5 118.9C1267.2 118.9 1267.8 119.5 1267.8 120.2C1267.8 120.9 1267.2 121.5 1266.5 121.5C1265.8 121.5 1265.2 120.9 1265.2 120.2C1265.2 119.5 1265.8 118.9 1266.5 118.9Z" fill="#CCFF66"/>
<path fill-rule="evenodd" clip-rule="evenodd" d="M1364.1 185.6C1364.8 185.6 1365.4 186.2 1365.4 186.9C1365.4 187.6 1364.8 188.2 1364.1 188.2C1363.4 188.2 1362.8 187.6 1362.8 186.9C1362.8 186.1 1363.4 185.6 1364.1 185.6Z" fill="#CCFF66"/>
<path fill-rule="evenodd" clip-rule="evenodd" d="M1004.7 299.2C1005.4 299.2 1006 299.8 1006 300.5C1006 301.2 1005.4 301.8 1004.7 301.8C1004 301.8 1003.4 301.2 1003.4 300.5C1003.5 299.7 1004 299.2 1004.7 299.2Z" fill="#CCFF66"/>
<path fill-rule="evenodd" clip-rule="evenodd" d="M1047 733.8C1049.2 733.8 1051 735.6 1051 737.9C1051 740.1 1049.2 741.9 1047 741.9C1044.8 741.9 1043 740.1 1043 737.9C1043 735.6 1044.8 733.8 1047 733.8Z" fill="#33CC99"/>
<path fill-rule="evenodd" clip-rule="evenodd" d="M1228.3 706C1230.5 706 1232.3 707.8 1232.3 710C1232.3 712.2 1230.5 714.1 1228.3 714.1C1226.1 714.1 1224.2 712.3 1224.2 710C1224.2 707.8 1226 706 1228.3 706Z" fill="#33CC99"/>
<path fill-rule="evenodd" clip-rule="evenodd" d="M1308.5 806C1310.7 806 1312.5 807.8 1312.5 810C1312.5 812.2 1310.7 814 1308.5 814C1306.3 814 1304.4 812.2 1304.4 810C1304.4 807.8 1306.3 806 1308.5 806Z" fill="#33CC99"/>
<path fill-rule="evenodd" clip-rule="evenodd" d="M910.9 950.5C913.1 950.5 914.9 952.3 914.9 954.5C914.9 956.7 913.1 958.6 910.9 958.6C908.7 958.6 906.9 956.8 906.9 954.5C906.9 952.3 908.7 950.5 910.9 950.5Z" fill="#33CC99"/>
<path fill-rule="evenodd" clip-rule="evenodd" d="M544.201 965.3C546.401 965.3 548.201 967.1 548.201 969.4C548.201 971.6 546.401 973.4 544.201 973.4C542.001 973.4 540.101 971.6 540.101 969.4C540.201 967.1 542.001 965.3 544.201 965.3Z" fill="#33CC99"/>
<path fill-rule="evenodd" clip-rule="evenodd" d="M170.101 918.4C172.301 918.4 174.201 920.2 174.201 922.4C174.201 924.6 172.401 926.4 170.101 926.4C167.901 926.4 166.101 924.6 166.101 922.4C166.101 920.2 167.901 918.4 170.101 918.4Z" fill="#33CC99"/>
<path fill-rule="evenodd" clip-rule="evenodd" d="M82.5 955.4C84.7 955.4 86.5 957.2 86.5 959.5C86.5 961.7 84.7 963.5 82.5 963.5C80.3 963.5 78.5 961.7 78.5 959.5C78.5 957.3 80.3 955.4 82.5 955.4Z" fill="#33CC99"/>
<path fill-rule="evenodd" clip-rule="evenodd" d="M238 643C240.2 643 242 644.8 242 647C242 649.2 240.2 651 238 651C235.8 651 233.9 649.2 233.9 647C233.9 644.8 235.8 643 238 643Z" fill="#33CC99"/>
<path fill-rule="evenodd" clip-rule="evenodd" d="M191.101 181.2C193.301 181.2 195.101 183 195.101 185.2C195.101 187.4 193.301 189.2 191.101 189.2C188.901 189.2 187.101 187.4 187.101 185.2C187.001 183.1 188.801 181.2 191.101 181.2Z" fill="#33CC99"/>
<path fill-rule="evenodd" clip-rule="evenodd" d="M249.4 80.4C251.6 80.4 253.4 82.2 253.4 84.5C253.4 86.7 251.6 88.5 249.4 88.5C247.2 88.5 245.4 86.7 245.4 84.5C245.4 82.3 247.2 80.4 249.4 80.4Z" fill="#33CC99"/>
<path fill-rule="evenodd" clip-rule="evenodd" d="M1220.8 945.2C1223 945.2 1224.8 947 1224.8 949.2C1224.8 951.4 1223 953.2 1220.8 953.2C1218.6 953.2 1216.8 951.4 1216.8 949.2C1216.8 947 1218.6 945.2 1220.8 945.2Z" fill="#33CC99"/>
<path fill-rule="evenodd" clip-rule="evenodd" d="M682.5 540.2C684.7 540.2 686.5 542 686.5 544.3C686.5 546.5 684.7 548.3 682.5 548.3C680.3 548.3 678.4 546.5 678.4 544.3C678.4 542 680.3 540.2 682.5 540.2Z" fill="#33CC99"/>
<path fill-rule="evenodd" clip-rule="evenodd" d="M625.7 520.5C627.9 520.5 629.7 522.3 629.7 524.5C629.7 526.7 627.9 528.5 625.7 528.5C623.5 528.5 621.7 526.7 621.7 524.5C621.7 522.3 623.5 520.5 625.7 520.5Z" fill="#33CC99"/>
<path fill-rule="evenodd" clip-rule="evenodd" d="M692.801 364.9C693.901 364.9 694.801 365.8 694.801 366.9C694.801 368 693.901 368.9 692.801 368.9C691.701 368.9 690.801 368 690.801 366.9C690.801 365.8 691.701 364.9 692.801 364.9Z" fill="#33CC99"/>
<path fill-rule="evenodd" clip-rule="evenodd" d="M684.9 256.4C686 256.4 686.9 257.3 686.9 258.4C686.9 259.5 686 260.4 684.9 260.4C683.8 260.4 682.9 259.5 682.9 258.4C683 257.3 683.8 256.4 684.9 256.4Z" fill="#33CC99"/>
<path fill-rule="evenodd" clip-rule="evenodd" d="M501 358.9C502.1 358.9 503 359.8 503 360.9C503 362 502.1 362.9 501 362.9C499.9 362.9 499 362 499 360.9C499 359.8 499.9 358.9 501 358.9Z" fill="#33CC99"/>
<path fill-rule="evenodd" clip-rule="evenodd" d="M230.601 286.1C231.701 286.1 232.601 287 232.601 288.1C232.601 289.2 231.701 290.1 230.601 290.1C229.501 290.1 228.601 289.2 228.601 288.1C228.601 287 229.501 286.1 230.601 286.1Z" fill="#33CC99"/>
<path fill-rule="evenodd" clip-rule="evenodd" d="M61.4004 345.3C62.5004 345.3 63.4004 346.2 63.4004 347.3C63.4004 348.4 62.5004 349.3 61.4004 349.3C60.3004 349.3 59.4004 348.4 59.4004 347.3C59.4004 346.2 60.3004 345.3 61.4004 345.3Z" fill="#33CC99"/>
<path fill-rule="evenodd" clip-rule="evenodd" d="M118.2 420.6C119.3 420.6 120.2 421.5 120.2 422.6C120.2 423.7 119.3 424.6 118.2 424.6C117.1 424.6 116.2 423.7 116.2 422.6C116.2 421.5 117.1 420.6 118.2 420.6Z" fill="#33CC99"/>
<path fill-rule="evenodd" clip-rule="evenodd" d="M833.101 86C834.201 86 835.101 86.9 835.101 88C835.101 89.1 834.201 90 833.101 90C832.001 90 831.101 89.1 831.101 88C831.101 86.9 832.001 86 833.101 86Z" fill="#33CC99"/>
<path fill-rule="evenodd" clip-rule="evenodd" d="M1290 408.3C1291.1 408.3 1292 409.2 1292 410.3C1292 411.4 1291.1 412.3 1290 412.3C1288.9 412.3 1288 411.4 1288 410.3C1288 409.2 1288.9 408.3 1290 408.3Z" fill="#33CC99"/>
<path fill-rule="evenodd" clip-rule="evenodd" d="M935.601 698.5C936.701 698.5 937.601 699.4 937.601 700.5C937.601 701.6 936.701 702.5 935.601 702.5C934.501 702.5 933.601 701.6 933.601 700.5C933.601 699.3 934.501 698.5 935.601 698.5Z" fill="#33CC99"/>
<path fill-rule="evenodd" clip-rule="evenodd" d="M485.6 88.5C488.5 88.5 490.8 90.8 490.8 93.7C490.8 96.6 488.5 98.9 485.6 98.9C482.7 98.9 480.4 96.6 480.4 93.7C480.4 90.8 482.8 88.5 485.6 88.5Z" fill="#FF9999"/>
<path fill-rule="evenodd" clip-rule="evenodd" d="M290.801 485.2C293.701 485.2 296.001 487.5 296.001 490.4C296.001 493.3 293.701 495.6 290.801 495.6C287.901 495.6 285.601 493.3 285.601 490.4C285.601 487.6 287.901 485.2 290.801 485.2Z" fill="#FF9999"/>
<path fill-rule="evenodd" clip-rule="evenodd" d="M1134.1 396.6C1136.9 396.6 1139.2 398.9 1139.2 401.8C1139.2 404.7 1136.9 407 1134.1 407C1131.2 407 1128.9 404.7 1128.9 401.8C1128.9 398.9 1131.2 396.6 1134.1 396.6Z" fill="#FF9999"/>
<path fill-rule="evenodd" clip-rule="evenodd" d="M813 681.8C815.9 681.8 818.2 684.1 818.2 687C818.2 689.9 815.9 692.2 813 692.2C810.2 692.2 807.9 689.9 807.9 687C807.9 684.1 810.2 681.8 813 681.8Z" fill="#FF9999"/>
<path fill-rule="evenodd" clip-rule="evenodd" d="M1103.2 1052C1106 1052 1108.4 1054.3 1108.4 1057.2C1108.4 1060 1106.1 1062.4 1103.2 1062.4C1100.3 1062.4 1098 1060.1 1098 1057.2C1098.1 1054.3 1100.4 1052 1103.2 1052Z" fill="#FF9999"/>
<path fill-rule="evenodd" clip-rule="evenodd" d="M1279.8 579C1282.7 579 1285 581.3 1285 584.2C1285 587.1 1282.7 589.4 1279.8 589.4C1277 589.4 1274.7 587.1 1274.7 584.2C1274.6 581.4 1276.9 579 1279.8 579Z" fill="#FF9999"/>
<path fill-rule="evenodd" clip-rule="evenodd" d="M443.4 766.4C445.4 766.4 446.9 768 446.9 769.9C446.9 771.9 445.4 773.4 443.4 773.4C441.5 773.4 439.9 771.8 439.9 769.9C439.9 767.9 441.5 766.4 443.4 766.4Z" fill="#FF9999"/>
<path fill-rule="evenodd" clip-rule="evenodd" d="M226.7 550.2C228.6 550.2 230.2 551.8 230.2 553.7C230.2 555.7 228.6 557.2 226.7 557.2C224.7 557.2 223.2 555.6 223.2 553.7C223.2 551.8 224.8 550.2 226.7 550.2Z" fill="#FF9999"/>
<path fill-rule="evenodd" clip-rule="evenodd" d="M89.7002 658.8C91.6002 658.8 93.2002 660.4 93.2002 662.3C93.2002 664.2 91.6002 665.8 89.7002 665.8C87.8002 665.8 86.2002 664.2 86.2002 662.3C86.2002 660.4 87.7002 658.8 89.7002 658.8Z" fill="#FF9999"/>
<path fill-rule="evenodd" clip-rule="evenodd" d="M182.3 783.5C184.2 783.5 185.8 785.1 185.8 787C185.8 788.9 184.2 790.5 182.3 790.5C180.3 790.5 178.8 788.9 178.8 787C178.7 785.1 180.3 783.5 182.3 783.5Z" fill="#FF9999"/>
<path fill-rule="evenodd" clip-rule="evenodd" d="M202 845.3C204 845.3 205.5 846.9 205.5 848.8C205.5 850.7 203.9 852.3 202 852.3C200.1 852.3 198.5 850.7 198.5 848.8C198.5 846.9 200.1 845.3 202 845.3Z" fill="#FF9999"/>
<path fill-rule="evenodd" clip-rule="evenodd" d="M166.2 883.6C168.2 883.6 169.7 885.2 169.7 887.1C169.7 889.1 168.1 890.6 166.2 890.6C164.3 890.6 162.7 889 162.7 887.1C162.7 885.1 164.3 883.6 166.2 883.6Z" fill="#FF9999"/>
<path fill-rule="evenodd" clip-rule="evenodd" d="M1176.2 239.1C1178.2 239.1 1179.7 240.7 1179.7 242.6C1179.7 244.6 1178.1 246.1 1176.2 246.1C1174.3 246.1 1172.7 244.5 1172.7 242.6C1172.7 240.6 1174.3 239.1 1176.2 239.1Z" fill="#FF9999"/>
<path fill-rule="evenodd" clip-rule="evenodd" d="M1154 34.1C1156 34.1 1157.5 35.7 1157.5 37.6C1157.5 39.6 1155.9 41.1 1154 41.1C1152.1 41.1 1150.5 39.5 1150.5 37.6C1150.5 35.7 1152.1 34.1 1154 34.1Z" fill="#FF9999"/>
<path fill-rule="evenodd" clip-rule="evenodd" d="M1304.6 152.6C1306.6 152.6 1308.1 154.2 1308.1 156.1C1308.1 158 1306.5 159.6 1304.6 159.6C1302.7 159.6 1301.1 158 1301.1 156.1C1301.1 154.2 1302.7 152.6 1304.6 152.6Z" fill="#FF9999"/>
<path fill-rule="evenodd" clip-rule="evenodd" d="M1134.9 208.8C1136.8 208.8 1138.4 210.3 1138.4 212.3C1138.4 214.2 1136.8 215.8 1134.9 215.8C1132.9 215.8 1131.4 214.2 1131.4 212.3C1131.3 210.4 1132.9 208.8 1134.9 208.8Z" fill="#CC66FF"/>
<path fill-rule="evenodd" clip-rule="evenodd" d="M332.3 510.4C335.6 510.4 338.3 513.1 338.3 516.4C338.3 519.7 335.6 522.4 332.3 522.4C329 522.4 326.3 519.7 326.3 516.4C326.3 513.1 329 510.4 332.3 510.4Z" fill="#CC66FF"/>
<path fill-rule="evenodd" clip-rule="evenodd" d="M251.6 140.2C254.9 140.2 257.6 142.9 257.6 146.2C257.6 149.5 254.9 152.2 251.6 152.2C248.3 152.2 245.6 149.5 245.6 146.2C245.6 142.9 248.3 140.2 251.6 140.2Z" fill="#CC66FF"/>
<path fill-rule="evenodd" clip-rule="evenodd" d="M466.399 58.7C469.699 58.7 472.399 61.3999 472.399 64.6999C472.399 67.9999 469.699 70.6999 466.399 70.6999C463.099 70.6999 460.399 67.9999 460.399 64.6999C460.399 61.3999 463.099 58.7 466.399 58.7Z" fill="#CC66FF"/>
<path fill-rule="evenodd" clip-rule="evenodd" d="M982.5 999.6C985.8 999.6 988.5 1002.3 988.5 1005.6C988.5 1008.9 985.8 1011.6 982.5 1011.6C979.2 1011.6 976.5 1008.9 976.5 1005.6C976.5 1002.3 979.2 999.6 982.5 999.6Z" fill="#CC66FF"/>
<path fill-rule="evenodd" clip-rule="evenodd" d="M1360.3 1090.9C1363.6 1090.9 1366.3 1093.6 1366.3 1096.9C1366.3 1100.2 1363.6 1102.9 1360.3 1102.9C1357 1102.9 1354.3 1100.2 1354.3 1096.9C1354.3 1093.6 1357 1090.9 1360.3 1090.9Z" fill="#CC66FF"/>
<path fill-rule="evenodd" clip-rule="evenodd" d="M115.7 1007C119 1007 121.7 1009.7 121.7 1013C121.7 1016.3 119 1019 115.7 1019C112.4 1019 109.7 1016.3 109.7 1013C109.7 1009.7 112.4 1007 115.7 1007Z" fill="#CC66FF"/>
<path fill-rule="evenodd" clip-rule="evenodd" d="M26.7998 646.4C30.0998 646.4 32.7998 649.1 32.7998 652.4C32.7998 655.7 30.0998 658.4 26.7998 658.4C23.4998 658.4 20.7998 655.7 20.7998 652.4C20.7998 649.1 23.4998 646.4 26.7998 646.4Z" fill="#CC66FF"/>
<path fill-rule="evenodd" clip-rule="evenodd" d="M194.3 363.5C195.9 363.5 197.3 364.9 197.3 366.5C197.3 368.2 195.9 369.5 194.3 369.5C192.6 369.5 191.3 368.2 191.3 366.5C191.2 364.9 192.6 363.5 194.3 363.5Z" fill="#CC66FF"/>
<path fill-rule="evenodd" clip-rule="evenodd" d="M75.5002 80.3999C77.1002 80.3999 78.5002 81.7999 78.5002 83.3999C78.5002 85.0999 77.1002 86.3999 75.5002 86.3999C73.8002 86.3999 72.5002 85.0999 72.5002 83.3999C72.4002 81.7999 73.8002 80.3999 75.5002 80.3999Z" fill="#CC66FF"/>
<path fill-rule="evenodd" clip-rule="evenodd" d="M1043.1 391.7C1044.8 391.7 1046.1 393.1 1046.1 394.7C1046.1 396.4 1044.8 397.7 1043.1 397.7C1041.5 397.7 1040.1 396.4 1040.1 394.7C1040.1 393.1 1041.5 391.7 1043.1 391.7Z" fill="#CC66FF"/>
<path fill-rule="evenodd" clip-rule="evenodd" d="M775.5 780.4C777.1 780.4 778.5 781.8 778.5 783.4C778.5 785.1 777.1 786.4 775.5 786.4C773.8 786.4 772.5 785.1 772.5 783.4C772.5 781.8 773.8 780.4 775.5 780.4Z" fill="#CC66FF"/>
<path fill-rule="evenodd" clip-rule="evenodd" d="M618.3 1011.5C620 1011.5 621.3 1012.8 621.3 1014.5C621.3 1016.1 620 1017.5 618.3 1017.5C616.7 1017.5 615.3 1016.1 615.3 1014.5C615.3 1012.9 616.7 1011.5 618.3 1011.5Z" fill="#CC66FF"/>
<path fill-rule="evenodd" clip-rule="evenodd" d="M346.7 779.4C348.4 779.4 349.7 780.8 349.7 782.4C349.7 784.1 348.4 785.4 346.7 785.4C345.1 785.4 343.7 784.1 343.7 782.4C343.7 780.7 345.1 779.4 346.7 779.4Z" fill="#CC66FF"/>
<path fill-rule="evenodd" clip-rule="evenodd" d="M751.7 107.7C753.4 107.7 754.7 109.1 754.7 110.7C754.7 112.4 753.4 113.7 751.7 113.7C750.1 113.7 748.7 112.4 748.7 110.7C748.7 109.1 750 107.7 751.7 107.7Z" fill="#CC66FF"/>
<path fill-rule="evenodd" clip-rule="evenodd" d="M1131.5 774.4C1133.1 774.4 1134.5 775.8 1134.5 777.4C1134.5 779.1 1133.1 780.4 1131.5 780.4C1129.8 780.4 1128.5 779.1 1128.5 777.4C1128.5 775.8 1129.8 774.4 1131.5 774.4Z" fill="#CC66FF"/>
</g>
<defs>
<linearGradient id="paint0_linear" x1="700" y1="1414" x2="700" y2="-7.77914e-09" gradientUnits="userSpaceOnUse">
<stop stop-color="#1A625A"/>
<stop offset="1" stop-color="#031430"/>
</linearGradient>
<linearGradient id="paint1_linear" x1="700" y1="1000.34" x2="700" y2="1500.01" gradientUnits="userSpaceOnUse">
<stop stop-color="#157D71"/>
<stop offset="1" stop-color="#031430"/>
</linearGradient>
<clipPath id="clip0">
<rect width="1400" height="1400" fill="white"/>
</clipPath>
</defs>
</svg>
