<svg width="465" height="95" viewBox="0 0 465 95" fill="none" xmlns="http://www.w3.org/2000/svg">
<g filter="url(#filter0_i)">
<path fill-rule="evenodd" clip-rule="evenodd" d="M464.3 36.3888C442.5 30.1888 420.3 28.9888 397.6 35.1888C386.3 28.0888 371.9 24.5888 353.1 26.5888C336.5 22.8888 319.5 21.9888 301.3 26.5888C284.4 18.6888 267.5 18.4888 250.7 22.8888C229.2 11.1888 205.9 6.08879 180.3 9.28879C151.4 4.38879 122 2.58879 91.4 6.78879C61.8 1.18879 31.4 -1.21119 0 0.58881L286.4 46.2888C235.8 39.2888 186.4 33.8888 138.2 30.1888L464.2 94.3888V36.3888H464.3Z" fill="#DBDBDB"/>
</g>
<defs>
<filter id="filter0_i" x="0" y="0" width="464.3" height="95.3888" filterUnits="userSpaceOnUse" color-interpolation-filters="sRGB">
<feFlood flood-opacity="0" result="BackgroundImageFix"/>
<feBlend mode="normal" in="SourceGraphic" in2="BackgroundImageFix" result="shape"/>
<feColorMatrix in="SourceAlpha" type="matrix" values="0 0 0 0 0 0 0 0 0 0 0 0 0 0 0 0 0 0 127 0" result="hardAlpha"/>
<feOffset dy="1"/>
<feGaussianBlur stdDeviation="2"/>
<feComposite in2="hardAlpha" operator="arithmetic" k2="-1" k3="1"/>
<feColorMatrix type="matrix" values="0 0 0 0 0 0 0 0 0 0 0 0 0 0 0 0 0 0 0.25 0"/>
<feBlend mode="normal" in2="shape" result="effect1_innerShadow"/>
</filter>
</defs>
</svg>
